<?xml version="1.0" encoding="UTF-8"?>
<!DOCTYPE svg
  PUBLIC '-//W3C//DTD SVG 1.1//EN'
  'http://www.w3.org/Graphics/SVG/1.1/DTD/svg11.dtd'>
<svg height="23.000mm" version="1.1" width="46.000mm" xmlns="http://www.w3.org/2000/svg">
    <!--Autogenerated with pyBarcode 0.7-->
    <rect height="100%" style="fill:white" width="100%"/>
    <rect height="15.000mm" style="fill:black;" width="0.200mm" x="2.540mm" y="1.000mm"/>
    <rect height="15.000mm" style="fill:white;" width="0.200mm" x="2.740mm" y="1.000mm"/>
    <rect height="15.000mm" style="fill:white;" width="0.200mm" x="2.940mm" y="1.000mm"/>
    <rect height="15.000mm" style="fill:white;" width="0.200mm" x="3.140mm" y="1.000mm"/>
    <rect height="15.000mm" style="fill:black;" width="0.200mm" x="3.340mm" y="1.000mm"/>
    <rect height="15.000mm" style="fill:white;" width="0.200mm" x="3.540mm" y="1.000mm"/>
    <rect height="15.000mm" style="fill:black;" width="0.200mm" x="3.740mm" y="1.000mm"/>
    <rect height="15.000mm" style="fill:black;" width="0.200mm" x="3.940mm" y="1.000mm"/>
    <rect height="15.000mm" style="fill:black;" width="0.200mm" x="4.140mm" y="1.000mm"/>
    <rect height="15.000mm" style="fill:white;" width="0.200mm" x="4.340mm" y="1.000mm"/>
    <rect height="15.000mm" style="fill:black;" width="0.200mm" x="4.540mm" y="1.000mm"/>
    <rect height="15.000mm" style="fill:black;" width="0.200mm" x="4.740mm" y="1.000mm"/>
    <rect height="15.000mm" style="fill:black;" width="0.200mm" x="4.940mm" y="1.000mm"/>
    <rect height="15.000mm" style="fill:white;" width="0.200mm" x="5.140mm" y="1.000mm"/>
    <rect height="15.000mm" style="fill:black;" width="0.200mm" x="5.340mm" y="1.000mm"/>
    <rect height="15.000mm" style="fill:white;" width="0.200mm" x="5.540mm" y="1.000mm"/>
    <rect height="15.000mm" style="fill:black;" width="0.200mm" x="5.740mm" y="1.000mm"/>
    <rect height="15.000mm" style="fill:black;" width="0.200mm" x="5.940mm" y="1.000mm"/>
    <rect height="15.000mm" style="fill:black;" width="0.200mm" x="6.140mm" y="1.000mm"/>
    <rect height="15.000mm" style="fill:white;" width="0.200mm" x="6.340mm" y="1.000mm"/>
    <rect height="15.000mm" style="fill:black;" width="0.200mm" x="6.540mm" y="1.000mm"/>
    <rect height="15.000mm" style="fill:black;" width="0.200mm" x="6.740mm" y="1.000mm"/>
    <rect height="15.000mm" style="fill:black;" width="0.200mm" x="6.940mm" y="1.000mm"/>
    <rect height="15.000mm" style="fill:white;" width="0.200mm" x="7.140mm" y="1.000mm"/>
    <rect height="15.000mm" style="fill:black;" width="0.200mm" x="7.340mm" y="1.000mm"/>
    <rect height="15.000mm" style="fill:white;" width="0.200mm" x="7.540mm" y="1.000mm"/>
    <rect height="15.000mm" style="fill:white;" width="0.200mm" x="7.740mm" y="1.000mm"/>
    <rect height="15.000mm" style="fill:white;" width="0.200mm" x="7.940mm" y="1.000mm"/>
    <rect height="15.000mm" style="fill:black;" width="0.200mm" x="8.140mm" y="1.000mm"/>
    <rect height="15.000mm" style="fill:white;" width="0.200mm" x="8.340mm" y="1.000mm"/>
    <rect height="15.000mm" style="fill:black;" width="0.200mm" x="8.540mm" y="1.000mm"/>
    <rect height="15.000mm" style="fill:white;" width="0.200mm" x="8.740mm" y="1.000mm"/>
    <rect height="15.000mm" style="fill:black;" width="0.200mm" x="8.940mm" y="1.000mm"/>
    <rect height="15.000mm" style="fill:black;" width="0.200mm" x="9.140mm" y="1.000mm"/>
    <rect height="15.000mm" style="fill:black;" width="0.200mm" x="9.340mm" y="1.000mm"/>
    <rect height="15.000mm" style="fill:white;" width="0.200mm" x="9.540mm" y="1.000mm"/>
    <rect height="15.000mm" style="fill:black;" width="0.200mm" x="9.740mm" y="1.000mm"/>
    <rect height="15.000mm" style="fill:white;" width="0.200mm" x="9.940mm" y="1.000mm"/>
    <rect height="15.000mm" style="fill:black;" width="0.200mm" x="10.140mm" y="1.000mm"/>
    <rect height="15.000mm" style="fill:black;" width="0.200mm" x="10.340mm" y="1.000mm"/>
    <rect height="15.000mm" style="fill:black;" width="0.200mm" x="10.540mm" y="1.000mm"/>
    <rect height="15.000mm" style="fill:white;" width="0.200mm" x="10.740mm" y="1.000mm"/>
    <rect height="15.000mm" style="fill:black;" width="0.200mm" x="10.940mm" y="1.000mm"/>
    <rect height="15.000mm" style="fill:white;" width="0.200mm" x="11.140mm" y="1.000mm"/>
    <rect height="15.000mm" style="fill:white;" width="0.200mm" x="11.340mm" y="1.000mm"/>
    <rect height="15.000mm" style="fill:white;" width="0.200mm" x="11.540mm" y="1.000mm"/>
    <rect height="15.000mm" style="fill:black;" width="0.200mm" x="11.740mm" y="1.000mm"/>
    <rect height="15.000mm" style="fill:white;" width="0.200mm" x="11.940mm" y="1.000mm"/>
    <rect height="15.000mm" style="fill:black;" width="0.200mm" x="12.140mm" y="1.000mm"/>
    <rect height="15.000mm" style="fill:white;" width="0.200mm" x="12.340mm" y="1.000mm"/>
    <rect height="15.000mm" style="fill:black;" width="0.200mm" x="12.540mm" y="1.000mm"/>
    <rect height="15.000mm" style="fill:black;" width="0.200mm" x="12.740mm" y="1.000mm"/>
    <rect height="15.000mm" style="fill:black;" width="0.200mm" x="12.940mm" y="1.000mm"/>
    <rect height="15.000mm" style="fill:white;" width="0.200mm" x="13.140mm" y="1.000mm"/>
    <rect height="15.000mm" style="fill:black;" width="0.200mm" x="13.340mm" y="1.000mm"/>
    <rect height="15.000mm" style="fill:white;" width="0.200mm" x="13.540mm" y="1.000mm"/>
    <rect height="15.000mm" style="fill:black;" width="0.200mm" x="13.740mm" y="1.000mm"/>
    <rect height="15.000mm" style="fill:white;" width="0.200mm" x="13.940mm" y="1.000mm"/>
    <rect height="15.000mm" style="fill:white;" width="0.200mm" x="14.140mm" y="1.000mm"/>
    <rect height="15.000mm" style="fill:white;" width="0.200mm" x="14.340mm" y="1.000mm"/>
    <rect height="15.000mm" style="fill:black;" width="0.200mm" x="14.540mm" y="1.000mm"/>
    <rect height="15.000mm" style="fill:black;" width="0.200mm" x="14.740mm" y="1.000mm"/>
    <rect height="15.000mm" style="fill:black;" width="0.200mm" x="14.940mm" y="1.000mm"/>
    <rect height="15.000mm" style="fill:white;" width="0.200mm" x="15.140mm" y="1.000mm"/>
    <rect height="15.000mm" style="fill:black;" width="0.200mm" x="15.340mm" y="1.000mm"/>
    <rect height="15.000mm" style="fill:black;" width="0.200mm" x="15.540mm" y="1.000mm"/>
    <rect height="15.000mm" style="fill:black;" width="0.200mm" x="15.740mm" y="1.000mm"/>
    <rect height="15.000mm" style="fill:white;" width="0.200mm" x="15.940mm" y="1.000mm"/>
    <rect height="15.000mm" style="fill:black;" width="0.200mm" x="16.140mm" y="1.000mm"/>
    <rect height="15.000mm" style="fill:white;" width="0.200mm" x="16.340mm" y="1.000mm"/>
    <rect height="15.000mm" style="fill:black;" width="0.200mm" x="16.540mm" y="1.000mm"/>
    <rect height="15.000mm" style="fill:black;" width="0.200mm" x="16.740mm" y="1.000mm"/>
    <rect height="15.000mm" style="fill:black;" width="0.200mm" x="16.940mm" y="1.000mm"/>
    <rect height="15.000mm" style="fill:white;" width="0.200mm" x="17.140mm" y="1.000mm"/>
    <rect height="15.000mm" style="fill:white;" width="0.200mm" x="17.340mm" y="1.000mm"/>
    <rect height="15.000mm" style="fill:white;" width="0.200mm" x="17.540mm" y="1.000mm"/>
    <rect height="15.000mm" style="fill:black;" width="0.200mm" x="17.740mm" y="1.000mm"/>
    <rect height="15.000mm" style="fill:white;" width="0.200mm" x="17.940mm" y="1.000mm"/>
    <rect height="15.000mm" style="fill:black;" width="0.200mm" x="18.140mm" y="1.000mm"/>
    <rect height="15.000mm" style="fill:white;" width="0.200mm" x="18.340mm" y="1.000mm"/>
    <rect height="15.000mm" style="fill:black;" width="0.200mm" x="18.540mm" y="1.000mm"/>
    <rect height="15.000mm" style="fill:white;" width="0.200mm" x="18.740mm" y="1.000mm"/>
    <rect height="15.000mm" style="fill:white;" width="0.200mm" x="18.940mm" y="1.000mm"/>
    <rect height="15.000mm" style="fill:white;" width="0.200mm" x="19.140mm" y="1.000mm"/>
    <rect height="15.000mm" style="fill:black;" width="0.200mm" x="19.340mm" y="1.000mm"/>
    <rect height="15.000mm" style="fill:black;" width="0.200mm" x="19.540mm" y="1.000mm"/>
    <rect height="15.000mm" style="fill:black;" width="0.200mm" x="19.740mm" y="1.000mm"/>
    <rect height="15.000mm" style="fill:white;" width="0.200mm" x="19.940mm" y="1.000mm"/>
    <rect height="15.000mm" style="fill:black;" width="0.200mm" x="20.140mm" y="1.000mm"/>
    <rect height="15.000mm" style="fill:white;" width="0.200mm" x="20.340mm" y="1.000mm"/>
    <rect height="15.000mm" style="fill:black;" width="0.200mm" x="20.540mm" y="1.000mm"/>
    <rect height="15.000mm" style="fill:black;" width="0.200mm" x="20.740mm" y="1.000mm"/>
    <rect height="15.000mm" style="fill:black;" width="0.200mm" x="20.940mm" y="1.000mm"/>
    <rect height="15.000mm" style="fill:white;" width="0.200mm" x="21.140mm" y="1.000mm"/>
    <rect height="15.000mm" style="fill:black;" width="0.200mm" x="21.340mm" y="1.000mm"/>
    <rect height="15.000mm" style="fill:white;" width="0.200mm" x="21.540mm" y="1.000mm"/>
    <rect height="15.000mm" style="fill:black;" width="0.200mm" x="21.740mm" y="1.000mm"/>
    <rect height="15.000mm" style="fill:white;" width="0.200mm" x="21.940mm" y="1.000mm"/>
    <rect height="15.000mm" style="fill:white;" width="0.200mm" x="22.140mm" y="1.000mm"/>
    <rect height="15.000mm" style="fill:white;" width="0.200mm" x="22.340mm" y="1.000mm"/>
    <rect height="15.000mm" style="fill:black;" width="0.200mm" x="22.540mm" y="1.000mm"/>
    <rect height="15.000mm" style="fill:black;" width="0.200mm" x="22.740mm" y="1.000mm"/>
    <rect height="15.000mm" style="fill:black;" width="0.200mm" x="22.940mm" y="1.000mm"/>
    <rect height="15.000mm" style="fill:white;" width="0.200mm" x="23.140mm" y="1.000mm"/>
    <rect height="15.000mm" style="fill:black;" width="0.200mm" x="23.340mm" y="1.000mm"/>
    <rect height="15.000mm" style="fill:white;" width="0.200mm" x="23.540mm" y="1.000mm"/>
    <rect height="15.000mm" style="fill:black;" width="0.200mm" x="23.740mm" y="1.000mm"/>
    <rect height="15.000mm" style="fill:white;" width="0.200mm" x="23.940mm" y="1.000mm"/>
    <rect height="15.000mm" style="fill:black;" width="0.200mm" x="24.140mm" y="1.000mm"/>
    <rect height="15.000mm" style="fill:black;" width="0.200mm" x="24.340mm" y="1.000mm"/>
    <rect height="15.000mm" style="fill:black;" width="0.200mm" x="24.540mm" y="1.000mm"/>
    <rect height="15.000mm" style="fill:white;" width="0.200mm" x="24.740mm" y="1.000mm"/>
    <rect height="15.000mm" style="fill:black;" width="0.200mm" x="24.940mm" y="1.000mm"/>
    <rect height="15.000mm" style="fill:black;" width="0.200mm" x="25.140mm" y="1.000mm"/>
    <rect height="15.000mm" style="fill:black;" width="0.200mm" x="25.340mm" y="1.000mm"/>
    <rect height="15.000mm" style="fill:white;" width="0.200mm" x="25.540mm" y="1.000mm"/>
    <rect height="15.000mm" style="fill:black;" width="0.200mm" x="25.740mm" y="1.000mm"/>
    <rect height="15.000mm" style="fill:white;" width="0.200mm" x="25.940mm" y="1.000mm"/>
    <rect height="15.000mm" style="fill:black;" width="0.200mm" x="26.140mm" y="1.000mm"/>
    <rect height="15.000mm" style="fill:white;" width="0.200mm" x="26.340mm" y="1.000mm"/>
    <rect height="15.000mm" style="fill:white;" width="0.200mm" x="26.540mm" y="1.000mm"/>
    <rect height="15.000mm" style="fill:white;" width="0.200mm" x="26.740mm" y="1.000mm"/>
    <rect height="15.000mm" style="fill:black;" width="0.200mm" x="26.940mm" y="1.000mm"/>
    <rect height="15.000mm" style="fill:white;" width="0.200mm" x="27.140mm" y="1.000mm"/>
    <rect height="15.000mm" style="fill:black;" width="0.200mm" x="27.340mm" y="1.000mm"/>
    <rect height="15.000mm" style="fill:black;" width="0.200mm" x="27.540mm" y="1.000mm"/>
    <rect height="15.000mm" style="fill:black;" width="0.200mm" x="27.740mm" y="1.000mm"/>
    <rect height="15.000mm" style="fill:white;" width="0.200mm" x="27.940mm" y="1.000mm"/>
    <rect height="15.000mm" style="fill:black;" width="0.200mm" x="28.140mm" y="1.000mm"/>
    <rect height="15.000mm" style="fill:black;" width="0.200mm" x="28.340mm" y="1.000mm"/>
    <rect height="15.000mm" style="fill:black;" width="0.200mm" x="28.540mm" y="1.000mm"/>
    <rect height="15.000mm" style="fill:white;" width="0.200mm" x="28.740mm" y="1.000mm"/>
    <rect height="15.000mm" style="fill:black;" width="0.200mm" x="28.940mm" y="1.000mm"/>
    <rect height="15.000mm" style="fill:white;" width="0.200mm" x="29.140mm" y="1.000mm"/>
    <rect height="15.000mm" style="fill:black;" width="0.200mm" x="29.340mm" y="1.000mm"/>
    <rect height="15.000mm" style="fill:white;" width="0.200mm" x="29.540mm" y="1.000mm"/>
    <rect height="15.000mm" style="fill:white;" width="0.200mm" x="29.740mm" y="1.000mm"/>
    <rect height="15.000mm" style="fill:white;" width="0.200mm" x="29.940mm" y="1.000mm"/>
    <rect height="15.000mm" style="fill:black;" width="0.200mm" x="30.140mm" y="1.000mm"/>
    <rect height="15.000mm" style="fill:black;" width="0.200mm" x="30.340mm" y="1.000mm"/>
    <rect height="15.000mm" style="fill:black;" width="0.200mm" x="30.540mm" y="1.000mm"/>
    <rect height="15.000mm" style="fill:white;" width="0.200mm" x="30.740mm" y="1.000mm"/>
    <rect height="15.000mm" style="fill:black;" width="0.200mm" x="30.940mm" y="1.000mm"/>
    <rect height="15.000mm" style="fill:white;" width="0.200mm" x="31.140mm" y="1.000mm"/>
    <rect height="15.000mm" style="fill:black;" width="0.200mm" x="31.340mm" y="1.000mm"/>
    <rect height="15.000mm" style="fill:black;" width="0.200mm" x="31.540mm" y="1.000mm"/>
    <rect height="15.000mm" style="fill:black;" width="0.200mm" x="31.740mm" y="1.000mm"/>
    <rect height="15.000mm" style="fill:white;" width="0.200mm" x="31.940mm" y="1.000mm"/>
    <rect height="15.000mm" style="fill:black;" width="0.200mm" x="32.140mm" y="1.000mm"/>
    <rect height="15.000mm" style="fill:white;" width="0.200mm" x="32.340mm" y="1.000mm"/>
    <rect height="15.000mm" style="fill:black;" width="0.200mm" x="32.540mm" y="1.000mm"/>
    <rect height="15.000mm" style="fill:black;" width="0.200mm" x="32.740mm" y="1.000mm"/>
    <rect height="15.000mm" style="fill:black;" width="0.200mm" x="32.940mm" y="1.000mm"/>
    <rect height="15.000mm" style="fill:white;" width="0.200mm" x="33.140mm" y="1.000mm"/>
    <rect height="15.000mm" style="fill:white;" width="0.200mm" x="33.340mm" y="1.000mm"/>
    <rect height="15.000mm" style="fill:white;" width="0.200mm" x="33.540mm" y="1.000mm"/>
    <rect height="15.000mm" style="fill:black;" width="0.200mm" x="33.740mm" y="1.000mm"/>
    <rect height="15.000mm" style="fill:white;" width="0.200mm" x="33.940mm" y="1.000mm"/>
    <rect height="15.000mm" style="fill:black;" width="0.200mm" x="34.140mm" y="1.000mm"/>
    <rect height="15.000mm" style="fill:white;" width="0.200mm" x="34.340mm" y="1.000mm"/>
    <rect height="15.000mm" style="fill:black;" width="0.200mm" x="34.540mm" y="1.000mm"/>
    <rect height="15.000mm" style="fill:black;" width="0.200mm" x="34.740mm" y="1.000mm"/>
    <rect height="15.000mm" style="fill:black;" width="0.200mm" x="34.940mm" y="1.000mm"/>
    <rect height="15.000mm" style="fill:white;" width="0.200mm" x="35.140mm" y="1.000mm"/>
    <rect height="15.000mm" style="fill:white;" width="0.200mm" x="35.340mm" y="1.000mm"/>
    <rect height="15.000mm" style="fill:white;" width="0.200mm" x="35.540mm" y="1.000mm"/>
    <rect height="15.000mm" style="fill:black;" width="0.200mm" x="35.740mm" y="1.000mm"/>
    <rect height="15.000mm" style="fill:white;" width="0.200mm" x="35.940mm" y="1.000mm"/>
    <rect height="15.000mm" style="fill:black;" width="0.200mm" x="36.140mm" y="1.000mm"/>
    <rect height="15.000mm" style="fill:black;" width="0.200mm" x="36.340mm" y="1.000mm"/>
    <rect height="15.000mm" style="fill:black;" width="0.200mm" x="36.540mm" y="1.000mm"/>
    <rect height="15.000mm" style="fill:white;" width="0.200mm" x="36.740mm" y="1.000mm"/>
    <rect height="15.000mm" style="fill:black;" width="0.200mm" x="36.940mm" y="1.000mm"/>
    <rect height="15.000mm" style="fill:white;" width="0.200mm" x="37.140mm" y="1.000mm"/>
    <rect height="15.000mm" style="fill:black;" width="0.200mm" x="37.340mm" y="1.000mm"/>
    <rect height="15.000mm" style="fill:white;" width="0.200mm" x="37.540mm" y="1.000mm"/>
    <rect height="15.000mm" style="fill:black;" width="0.200mm" x="37.740mm" y="1.000mm"/>
    <rect height="15.000mm" style="fill:white;" width="0.200mm" x="37.940mm" y="1.000mm"/>
    <rect height="15.000mm" style="fill:black;" width="0.200mm" x="38.140mm" y="1.000mm"/>
    <rect height="15.000mm" style="fill:white;" width="0.200mm" x="38.340mm" y="1.000mm"/>
    <rect height="15.000mm" style="fill:white;" width="0.200mm" x="38.540mm" y="1.000mm"/>
    <rect height="15.000mm" style="fill:white;" width="0.200mm" x="38.740mm" y="1.000mm"/>
    <rect height="15.000mm" style="fill:black;" width="0.200mm" x="38.940mm" y="1.000mm"/>
    <rect height="15.000mm" style="fill:black;" width="0.200mm" x="39.140mm" y="1.000mm"/>
    <rect height="15.000mm" style="fill:black;" width="0.200mm" x="39.340mm" y="1.000mm"/>
    <rect height="15.000mm" style="fill:white;" width="0.200mm" x="39.540mm" y="1.000mm"/>
    <rect height="15.000mm" style="fill:black;" width="0.200mm" x="39.740mm" y="1.000mm"/>
    <rect height="15.000mm" style="fill:black;" width="0.200mm" x="39.940mm" y="1.000mm"/>
    <rect height="15.000mm" style="fill:black;" width="0.200mm" x="40.140mm" y="1.000mm"/>
    <rect height="15.000mm" style="fill:white;" width="0.200mm" x="40.340mm" y="1.000mm"/>
    <rect height="15.000mm" style="fill:black;" width="0.200mm" x="40.540mm" y="1.000mm"/>
    <rect height="15.000mm" style="fill:white;" width="0.200mm" x="40.740mm" y="1.000mm"/>
    <rect height="15.000mm" style="fill:black;" width="0.200mm" x="40.940mm" y="1.000mm"/>
    <rect height="15.000mm" style="fill:white;" width="0.200mm" x="41.140mm" y="1.000mm"/>
    <rect height="15.000mm" style="fill:white;" width="0.200mm" x="41.340mm" y="1.000mm"/>
    <rect height="15.000mm" style="fill:white;" width="0.200mm" x="41.540mm" y="1.000mm"/>
    <rect height="15.000mm" style="fill:black;" width="0.200mm" x="41.740mm" y="1.000mm"/>
    <rect height="15.000mm" style="fill:white;" width="0.200mm" x="41.940mm" y="1.000mm"/>
    <rect height="15.000mm" style="fill:black;" width="0.200mm" x="42.140mm" y="1.000mm"/>
    <rect height="15.000mm" style="fill:black;" width="0.200mm" x="42.340mm" y="1.000mm"/>
    <rect height="15.000mm" style="fill:black;" width="0.200mm" x="42.540mm" y="1.000mm"/>
    <rect height="15.000mm" style="fill:white;" width="0.200mm" x="42.740mm" y="1.000mm"/>
    <rect height="15.000mm" style="fill:black;" width="0.200mm" x="42.940mm" y="1.000mm"/>
    <rect height="15.000mm" style="fill:black;" width="0.200mm" x="43.140mm" y="1.000mm"/>
    <rect height="15.000mm" style="fill:black;" width="0.200mm" x="43.340mm" y="1.000mm"/>
    <rect height="15.000mm" style="fill:white;" width="0.200mm" x="43.540mm" y="1.000mm"/>
    <rect height="15.000mm" style="fill:black;" width="0.200mm" x="43.740mm" y="1.000mm"/>
    <rect height="15.000mm" style="fill:white;" width="2.540mm" x="43.940mm" y="1.000mm"/>
    <text style="fill:black;font-size:10pt;text-anchor:middle;" x="21.970mm" y="21.000mm">COLE VAHEY0</text>
</svg>
